<svg width="91" height="91" xmlns="http://www.w3.org/2000/svg">

 <g>
  <title>background</title>
  <rect fill="none" id="canvas_background" height="402" width="582" y="-1" x="-1"/>
 </g>
 <g>
  <title>Layer 1</title>
  <path id="svg_6" fill="#000000" d="m80.203,86.429l-77.367,0c-1.387,0 -2.512,-1.125 -2.512,-2.513l0,-65.115c0,-0.667 0.265,-1.307 0.736,-1.777c0.471,-0.471 1.109,-0.736 1.775,-0.736l0,0l85.387,0.002c1.387,0 2.512,1.125 2.512,2.514l0,57.094c0,5.805 -4.724,10.531 -10.531,10.531zm-74.853,-5.026l74.854,0c3.036,0 5.506,-2.471 5.506,-5.507l0,-54.582l-80.36,-0.001l0,60.09z"/>
  <path id="svg_9" fill="#000000" d="m74.074,48.004l-57.087,0c-0.931,0 -1.784,-0.515 -2.22,-1.336l-14.147,-26.691c-0.413,-0.778 -0.388,-1.717 0.067,-2.472c0.454,-0.755 1.271,-1.218 2.152,-1.218l85.383,0c0.881,0 1.697,0.463 2.152,1.218s0.48,1.693 0.066,2.472l-14.145,26.691c-0.436,0.821 -1.29,1.336 -2.221,1.336zm-55.575,-5.025l54.063,0l11.484,-21.666l-77.03,0l11.483,21.666z"/>
  <path id="svg_10" fill="#000000" d="m58.972,21.313l-26.88,0c-1.388,0 -2.513,-1.125 -2.513,-2.512l0,-12.027c0,-1.388 1.125,-2.513 2.513,-2.513l26.88,0c1.388,0 2.513,1.125 2.513,2.513l0,12.026c-0.001,1.388 -1.126,2.513 -2.513,2.513zm-24.368,-5.026l21.854,0l0,-7l-21.854,0l0,7z"/>
  <path id="svg_13" fill="#000000" d="m45.533,57.572c-6.662,0 -12.082,-5.42 -12.082,-12.082c0,-1.387 1.125,-2.512 2.514,-2.512l19.132,0c1.388,0 2.513,1.125 2.513,2.512c-0.001,6.662 -5.419,12.082 -12.077,12.082zm-6.594,-9.568c1.014,2.654 3.587,4.543 6.594,4.543c3.004,0 5.575,-1.889 6.59,-4.543l-13.184,0z"/>
 </g>
</svg>